<?xml version="1.0" encoding="UTF-8"?><svg id="_レイヤー_2" xmlns="http://www.w3.org/2000/svg" viewBox="0 0 1183 916"><defs><style>.cls-1{fill:#01a570;fill-rule:evenodd;}</style></defs><g id="_レイヤー_2-2"><path class="cls-1" d="M17.1,0c2.57,1.1,4.23,4,5,5.1,9.93-3.3,12.68,1.33,15,8.9-1.43,1.33-3.77,2.67-7,4-7.87-1.59-10.38-2.9-17-7.9,.92-6.38,1.94-6.48,4-10.1Zm27,0c6.66,3.94,17.84,11.11,18,16.1,.57,1.57,.23,2.23-1,2-4.34-2.09-7.27,.06-13-3-1.41-4.98-4.99-7.5-4-15.1ZM362.1,117.1c3.23,1.23,5.57,1.57,7,1,.57-2.43,.23-5.77-.1-9.1,.1-.33,2-.67,2.1-1.9,3.17,2.26,2.88,2.35,6,2,.57-1.1,.23-4-1-6-3.75-.28-4.72-1.96-7.1-6,.33,.23,.67-.43,.1-1.1,2.23-.67,3.57-1.33,4.9-2.9,9.86,4.83,21.51-2.09,31.1,7.9,.23,2.33-.43,4.67-2,6.1h1.9c4.01-.48,7.29-.08,10.1,3-1.16,4.8-1.61,4.05-2,8,11.33,6.58,13.4,11.97,12,27.9,5.57,.67,10.23,1.33,14,1.1,1.23,.23,1.57-.43,1.9-1.1-3-1-6.9-2.9-9.9-3.9,.3-13.69,1.02-20.67,4.9-29.1,3.67-1,7.33-2.9,10.1-3.9,1.23,1.23,1.57,1.57,1.9,1-1.33,6.9-2.67,12.9-4.9,18,5.57,3.23,10.23,5.57,14.9,7-4.95,3.76-3.71,6.25-3.9,12h8.9c3.49-5.12,10.04-10.62,16.1-13.1,13.16,4.79,14.31,.8,25,4.1-.1,3.23-2,5.57-3,7.9,3.57,.67,6.23,1.33,8,1.1,1.73,9.76,2.68,12.97,2,17,7.24,4.45,7,10.42,14,12,3.07-3.82,3.64-1.6,8-4,.77,4.52-1.34,4.61,1.9,5h4.1c1.23,.57,1.57,.23,1-1,.23-2.43-.43-5.77-1.1-9.1h-1.9c-4.09,1.5-4.12,3.1-9,4.1,.23,.57-.43,.23-1.1-.1-.95-8.38-5.32-14.69-1.9-21,12.66,7.43,16.42,18.49,31,17,1.23,2.67,1.57,5.33,1.9,8,14.83,.88,22.96,15.55,34.1,21-.43,3.33-1.77,6.67-4,9.1-3.99,.6-3.99-.16-8,1,2.4,4.92,2.18,5.16,1.9,10.9,4.33,.1,8.67,2,13,2.1,1.33-.43,2.67-1.77,4-3.1-1.41-4.21-2.68-4.11-5-7,1.24-4.42,2.33-6.91,5.1-9,4.71-1.29,11.22,.07,13,2.1-1.9,11.01,4.49,14.02,7,20,8.49,.11,11.05-1.69,15.9-1,.86,5.43-.12,3.88,3,5,4.76,2.32,5.58-.18,9.1,4,.6,4.32-.33,2.38,1.9,4,1.67,1.23,3.33,1.57,5,1-1.11,9.32,5.61,25.09,10.1,29,3.23-2.77,5.57-6.43,7-10.1,3.57-.33,6.23-.67,8-1.9,9.74,19.83,30.34,27.63,43,38.9v1c-7.09,5.1-17.91,9.18-24.1,16.1,.1,2.57,2,4.23,2.1,5,.23,1.57-.43,2.23-2,2.9-.43-.67-1.77-1.33-3.1-2.9-.67,2.23-1.33,3.57-2,4,6.49,2.67,11.93,4.11,19,4-2.14-4.66-.5-4.55,3-9.1,2.33,.67,4.67,1.33,7,1.1,.58-5.35-.68-8.53,.1-16,1.57,1.23,2.23,1.57,2,1.9,4,.67,8.9,1.33,12,1.1,1.92,5.9,2.5,4.94,4.9,7.9,5.33-1.22,5.45-2.01,10,0,2.8,7.73,7.64,13.55,11,20,10.95-.07,23.36,3.43,22.1,8,5.83,8.47,8.74,13.46,13.9,19.1-3.19,7.58-7.67,16.1-6.9,24,4.03,4.43,8.5,5.61,13.9,6.9,.06,8.45,2.6,6.76,3.1,15.1,3.19-.13,5.28-18.14,3.9-25-1.26-4.53-8.19-7.48-10.9-14.1,2-2,4.9-4.9,6.9-6.9,14.22,4.9,16.25,20.69,29,23.9-.53,12.04,8.86,16.8,7,29.1,.1,1.23,2,1.57,3,1,5.9-1.58,6.71-4.43,11-9,12.44,6.49,14.27,28.05,21,27.9,3.64-.03,2.69-.61,6.1-2.9,1.23,2.23,1.57,3.57,1.9,4-4.82,2.79-6.96,3.91-7,10.9,4.15,3.97,6.35,3.97,7,12-1,.33-2.9,.67-3,1-5.69,2.51-13.49,1.93-16,8,4.67,1.33,9.33,2.67,14,4,4.62-6.36,9.77-6.47,15-10.9v-2.1c2.33,2.67,4.67,5.33,7,7.1-.09,4.38-.33,9.17,0,10.9,4.95-.8,6.34-1.92,9,0,10.6,8.09,4.13,16.24,22,25.1,1.45,9.25,1.77,17.8,5.1,22.9-.77,3.33-2.43,6.67-5,10-1.91-1.77-.8-1.46-3.1-2.9,.33,2.57,.67,4.23,1,5.9,4.97,1.42,6.74,.81,9,5,7.74-2.01,15.66-5.38,22-2.9-7.08,10.45-1.78,25.01,7.1,29,.57,1.57,.23,2.23-.1,2.9-2.15,.15-5.63,.34-8,3-6.28-1.39-9.28-4.22-13-8,1.1-3,4-6.9,6-9.9-1.67,1.57-3.33,2.23-5,2.9-.38-9.3-3.85-9.68-7-16.9-1,1.57-2.9,2.23-3.9,2.9-1.43,4.1-3.77,10-6.1,14.1,4.67,3.55,6.99,9.32,11,12-5.85,8.77-3.38,9.51-5,16.9-4.42-.94-6.21-.66-8,4,7.87,.91,12.28,2.19,14-7.9,7.36,1.93,13.54-1.21,13.1,9-1.43,1.57-3.77,2.23-7,2.9,.23,3.33-.43,6.67-1.1,9.1-1.67-.43-3.33-1.77-5-4,1.59,9.15-1.33,10.94-4,16,2.33-.1,4.67-2,7-3,.67,1.23,1.33,1.57,2,1.9-.33,2.33-.67,4.67-1,6.1,4.5,1.99,3.18,2.45,7,3,2.53-5.11,5.1-2.68,9-.1-1.67,2.33-3.33,4.67-5,7-4.67,.33-9.33,.67-14,1,.67-3,1.33-6.9,2-9-3.76-.52-4.13-1.24-7-5.9-2,1.23-4.9,1.57-6.9,1.9v1c3.26,4.28,5.4,4.3,6.9,9.1-4.56,3.07-8.37,4-16,3.9v4h7c2.04,11.59,1.88,8.5-1,20h3c10.55-6.34,10.24-7.51,14-22,1.1,.33,4,.67,5.1,1,2.23,.67,3.57,1.33,4.9,1.1,.09,10.27-.64,11.23-2,18.9-6.62-1.25-26.83,15.54-33.9,23.1v3h8.9c4.75-.77,12.2-.31,15.1-4,4.91-4.87-1.51-6.84,7-12,3.23,1.23,5.57,1.57,7.9,1.9,.67,.1,1.33,2,2,2.1-.6,8.5-2.9,11.25-6,15.9-5.33,.67-10.67,1.33-16,1.1,2.57,5.6,3.19,10.05,7,12,6.97,0,5.84,2.87,12-1.1,4.47,3.21,7.28,4.1,14,5.1,1.41,7.2,.05,9.07,1,13,6.24-5.45,14.33-9.56,19,0,.1,.23,2-.43,3-1.1,.1-1,2-2.9,3-3.9,10.95,4.66,32.43,16.29,34,26,5.22,.16,5.52,.77,7-5,8.13,3.75,3.97,7.58,10,10.9v-8c5.07-.81,3.52-2.06,7,0,7.52,3.47,11.77,10.64,15,17-2,.67-4.9,1.33-6.9,1.1v4c1,1.57,2.9,2.23,3.9,2.9,8.11-2.43,26.07-.08,35,5-.33,2.67-.67,5.33-1,8,5.14-.47,10.23,.29,13,5,.1,1.67,2,3.33,3,4.1-5.16,7.93-3.64,9.83-3,21-2.33,1-4.67,2.9-7.9,3.9,4.56,4.12,6.57,6.02,8.9,12,3.92-1.96,6.14-3.19,11-2-1.69-5.35,.36-5.01,1-12-4.76-1.89-5.77-4.7-6-11h1c4.99,7.71,8.19,4.11,13,7,.55,4.71,.77,2.74,6,5-.33,.1-.67,2-1,3-.33,.67-.67,1.33-1,2-7.14-1.45-4.64-.57-11,2,1.57,7.36-1.47,10.51-1,15h1c5.76-1.78,6.4-4.46,10-8.9,3.71,1.64,3.89,1.37,7-.1,.33,.1,.67,2,1,3-1.67,.1-3.33,2-5,2.1,1.16,6.84,1.57,7.41,3,12h-4c-.42-4.57-.91-4.09-3-8h-3c-3.31,7.11-5.99,9.47-12,12,.33,1.57,.67,2.23,1,2.9,2.67,.1,5.33,2,7.1,3,.23,2.33-.43,4.67-1.1,6.1,3.67,.23,7.33-.43,11-1.1-.33,1.1-.67,4-1,6-6,6.67-12,13.33-18,20-6.22-1.14-8.28-3.29-12,.1,2.35,5.18,3.44,6.44,8,5.9-1.51,5.19-1.98,8.6-1,13h1c14.89-2.15,28.18,1.09,37-10,1.96,2.19,2.28,3.19,3,7-1.67,2.67-3.33,5.33-5,8-3.02,2.9-4.42,1.53-8,0l-8,4c-.33,3.67-.67,7.33-1,10.1,8.67-.1,17.33-2,26-2.1,1.67,2.67,3.33,5.33,5,8H0V304.1H5.1c.23-.1-.43-2-2-3-.43,.57-1.77,.23-3.1-1V11.1c4.45,2.26,3.91,2.49,5.1,5-2.48,7.64-.32,25,0,27h12v-7c-.43-1.1-1.77-4-4-6,5.29-2.97,10.7-4.71,16-4.1,1.57,.1,2.23,2,2,2.1,.34,6.5,1.02,9.58,2,14.9,1.23,0,1.57,0,1,0,2.23-.33,3.57-.67,4-1.9,2.1-8.63,.23-8.68-2-19,10.66,.4,15.7-1.03,23.9-3,.42,6.11,.82,10.06,.1,15,2.23,1,3.57,2.9,4,3,3.57-1.1,6.23-4,8-6,.29-3.66,3.31-18.62,6-23,1.23,0,1.57,0,1,0,2.43,6.19,3.54,7.47,7,9.9,6.47-1.67,6.94-4.05,10-2.9,5.6,5.06,3.93,8.24,12,8,.3-3.15-.26-3.25,1-7,10.16,6.98,35.5,19.05,45,16-.25-2.49-.17-1.5-1-6,8.13,.4,13.4-.16,17,3.9-1.82,2.99-.31,4.67,0,8.1,8.1,3.25,13.05,8.05,13,16.9,6.92-.83,9.61-1.62,14-3.9,1.57-.43,2.23-1.77,2-4-1.43-1.43-3.77-3.77-7-7,1-1.1,2.9-4,3-6,2.98-1.22,3.49-.94,7-2,9.34,7.38,11.06,6.78,19,8-1.54,3.65-1.8,2.35-3.1,6.9,6.01,.16,27.13,3.8,29,12.1,1.38,7.71-3.66,8.69,0,12.9,7.47,7.01,18.8,2.27,24.1,8.1v14c1.57,1.57,2.23,2.23,2,2.9h2.9c.33-.33,.67-.67,.1-1-1.28-13.24,6.75-28.2,12-34.9,2.23,.57,3.57,.23,4-1,1.23,1.23,1.57,1.57,1,1,.03,8.16-.7,9.28,0,15,3,1,6.9,2.9,9,3.9,1.57,3.1,2.23,8,2,12-4.1,1.33-10,2.67-14.1,4-.33,1.67-.67,3.33-1.9,5,1.57,.33,2.23,.67,2,.1,9.52-.68,11.32-2.61,19-2,2.23-1.1,3.57-4,4.9-6,3.85,2.96,10.36,3.97,12.1,1-.69-3.15,.05-2.76-.1-8-3.68,.51-3.55,2.36-7-2,.1-.43,2-1.77,2.1-4,5.68,2.56,5,4.24,9.9,5,2.8-3.37,4.68-5.23,8.1-9,15.95,2.88,18.3,5.37,27.9,16-1.54,5.88-4.03,15.05-4.9,25ZM123.1,34c-2.38,2.91-3.82,2.01-8.1,2.1,1.33,4.57,2.67,8.23,3.1,11,6.87,3.02,6.41,5.13,10,3.9,1.42-4.82,4.01-13.65,1-17h-6Zm35,3.1c1.23,3.23,1.57,5.57,1,7-1.43,2-3.77,4.9-7,6.9,1.23,.1,1.57,2,1,2.1,11.1,2.53,14.6-3.62,21.9-10-8.39-.04-8.84-3.51-16.9-6Zm-65,8c.57-1.43,.23-3.77-1-7-4.77,1.18-14.34,1.03-18,2-.1,1.23-2,1.57-2.1,1,.71,10.92-2.91,10.29-5.9,19,2.57,1.57,4.23,2.23,5.9,2.9,2.99-10.64,9.19-16.27,21.1-17.9Zm55-5c2.23,2.23,3.57,3.57,4,4,4.3-.45,2.97,.29,4-3h-3c-.77,.57-2.43,.23-5-1Zm57.9,3c-1.33,1.23-2.67,1.57-4.9,1,2.23,2.57,3.57,4.23,4.9,5,.33,1.57,.67,2.23,.1,2,1,.23,2.9-.43,3-2v-2.1c-.43-1-1.77-2.9-3.1-3.9ZM13.1,48.1c1.57,2.57,2.23,4.23,2,5,1.57,.23,2.23-.43,2-2-.43-.1-1.77-2-4-3Zm243,0c8.12,3.79,9.11,10.59,14.9,14.9,1.33-1,2.67-2.9,3.1-3.9-.1,4-2,8.9-3,12.9-7.67-.42-4.62-.27-12.1,.1,2.29-6.94-5.76-13.94-2.9-24Zm-212,1c.57,1,.23,2.9-1,3,1.57,0,2.23,0,2,0,5.12,3.33,8.83,3.39,11,1,0,.57,0,.23,0-1l-3-3h-9Zm167,0c.23,2-.43,4.9-2,6,2.23,1.57,3.57,2.23,4,2-.1,1-2,2.9-2.1,3-1.67,.23-3.33-.43-5-1.1v2.1c3.59,2.79,4.07,4.57,5.1,7,5.41,.69,6.29,.19,8-2,0,.57,0,.23,0-1-.43-4.43-1.77-9.77-3.1-16h-4.9Zm-192,2c1.23,1,1.57,2.9,1,3.9,1.23,0,1.57,0,1,0,1.57-.67,2.23-1.33,2.9-2.9-1.33,.57-2.67,.23-4.9-1Zm184.9,1v3c.67,.23,1.33-.43,2-2-.67,.57-1.33,.23-2-1Zm99.1,5c2.23,1,3.57,2.9,4,3-.43,4.57-1.77,8.23-4,11.9,.57,0,.23,0-1,0-.43-1-1.77-2.9-4-3.9,2.57-2.77,4.23-6.43,5-11Zm-190,1.9c-.77,.1-2.43,2-5,2.1,1,3.23,2.9,5.57,3,7,2-1.1,4.9-4,6-5.1,.23-.67-.43-1.33-2-2.9,.23,.23-.43-.43-2-1.1Zm62,6.1c-.1,1-2,2.9-3,3,1.23,3.23,1.57,5.57,1,7.9,9.01,1.18,7.94,4.32,14,5.1,1.23-.1,1.57-2,1-3-2.1-.1-6-2-8.1-2.1-2.32-2.23-1.66-7.72-4.9-10.9Zm105,2.9c1.23,.67,1.57,1.33,1,1.1,.57,.23,.23-.43-1-1.1Zm-61,.1v3.9c1.57,0,2.23,0,2,0v-3.9c.23,0-.43,0-2,0Zm-82,3.9c.23,1.33-.43,2.67-2,4,3.23,.67,5.57,1.33,7,1.1,1.23,.23,1.57-.43,1.9-1.1-.33-1-.67-2.9-1.9-3.9-.77,.57-2.43,.23-5-.1Zm-5.1,5.1v3c2.33,1.23,4.67,1.57,7,1-.67-.1-1.33-2-2.9-3-.77,.57-2.43,.23-4.1-1Zm199.1,14.9c1.57,1.33,2.23,2.67,2,4,2,.33,4.9,.67,6,1,.23-1.33-.43-2.67-1.1-4.9-2,.57-4.9,.23-6.9-.1Zm-170,.1c2.39,4.57,3.5,5.26,6.9,6-1-1.1-2.9-4-3.9-6h-3Zm77,0c.57,1.57,.23,2.23-1,2v1.9h3c.23-1-.43-2.9-2-3.9Zm109,0c.23,1.23-.43,1.57-2,1,1.7,4.52,4.75,7.5,5,8,2.57,.23,4.23-.43,5-2v-3.1c-1.77-1-4.43-2.9-8-3.9Zm-143.1,1c-.33,1.57-.67,2.23-1.9,2.9,4.53-.64,3.93-.4,5-2.9h-3.1Zm127.1,6v6c1.57,1.23,2.23,1.57,2,1,2,.23,4.9-.43,6-1.1,.23-1.67-.43-3.33-1.1-5.9h-6.9Zm-17.1,4c1.3,5.61,1.31,5.58,5.1,6,.23-.77-.43-2.43-2-4.1-.43-.33-1.77-.67-3.1-1.9Zm86.1,5.9c-3.39,3.19-6.24,2.8-12.1,.1,0,1.23,0,1.57,0,1,4.33,4,8.67,8.9,12.1,12,6.71-1.46,9.11-3.81,11.9-9.1-4.37-2-6.42-2.44-11.9-4Zm-43,8.1c2.86,2.97,1.27,1.94,4.9,2,0,.23,0-.43,0-2h-4.9Zm95.9,0c2.28,4.23,2.83,4.14,.1,6-1.08-1.93-.57-1.07-.1-6Zm7.1,12.9c1,.67,2.9,1.33,3,1.1,0,1.23,0,1.57,0,1h-3v-2.1Zm-155,2.1c-.43,1.23-1.77,1.57-3.1,1.9,0,.33,0,.67,0,.1,.67,1.57,1.33,2.23,1.1,2,1,2,2.9,4.9,3.9,6,.67,.57,1.33,.23,2-.1,.67-1.67,1.33-3.33,1.1-5.9,.57-.1,.23-2-1-2.1-.43-.33-1.77-.67-4-1.9Zm66,7c2.23,2,3.57,4.9,4.9,6.9,3.64-.64,3.03-.4,5-2.9-1-.43-2.9-1.77-3.9-4,.57,0,.23,0-1,0h-5Zm99,6.9v5.1c3.57,1,6.23,2.9,8.9,3.9,.33-.67,.67-1.33,.1-2.9-.43-1.1-1.77-4-4-6-.77,.57-2.43,.23-5-.1Zm-55.1,1.1c2.33,2.57,4.67,4.23,7,5-.33-.43-.67-1.77-1.9-4-1.1,.57-4,.23-5.1-1Zm72,0v4c2.67,3.23,5.33,5.57,7.1,7.9,4.54-.64,3.93-.4,5-2.9-.1-.1-2-2-3-2.1-.65-4.05,.19-3.53-5-5.9-.77,.57-2.43,.23-4.1-1Zm-58,1c1.93,3.93,.2,2.52,3.1,3,0,.23,0-.43,0-1.1-.43-.33-1.77-.67-3.1-1.9Zm-11.9,5.9c.57,.67,.23,1.33-.1,1.1,1.86-.35,.55,0,.1-1.1Zm66.9,0c-3.29,3.05-3.1-.27-5,5,5.72,1.48,7.89,9.58,8.1,14.1,1.57,0,2.23,0,2,0,2.2-8.68,3.95-15.3-5.1-19.1Zm-23.9,1.1c0,1.57,0,2.23,0,2,3.92-.36,2.1,.92,3-2h-3Zm-29,7.9c.57,.67,.23,1.33-1,1.1,2.57,1.23,4.23,1.57,5.9,1v-2.1h-4.9Zm74.9,.1c.67,2.23,1.33,3.57,2,4v-4h-2Zm-47.9,9c1.57,1,2.23,2.9,2,3,1.23,0,1.57,0,1,0v-3h-3Zm94,6.9c.97,3.87,3.54,6.37,3.9,9-3.14,1.92-2.82,2.13-4.9,5.1,1.23,0,1.57,0,1,0,6.27-3.22,7.87-.24,14,1,1.23-1.1,1.57-4,1.9-6-9.05-1.23-8.59-5.47-15.9-9.1Zm-46.1,5c.89,5.23,1.75,5.5,5,8,1.1-.33,4-.67,5.1-1.9,1.57-.1,2.23-2,2-2.1,.23-1-.43-2.9-2-3.9-2.77,.57-6.43,.23-10.1-.1Zm43.1,10.1c.23,2.57-.43,4.23-2,5.9,2.23-.33,3.57-.67,4-1.9,.23-.43-.43-1.77-2-4Zm55,37v12h1.9c4.33-1.1,8.67-4,13-5.1,.33,1.33,.67,2.67,.1,4,2-1.67,4.9-3.33,6.9-5v-1.9c-7.16-1.51-12.69-2.68-21.9-4Zm28.9,27c-.33,2.57-.67,4.23-1.9,5,2.57-.1,4.23-2,5.9-3-1.33,.23-2.67-.43-4-2Zm48.1,37.9v-6.9c1.57,.23,2.23-.43,2-2,4.77,2.98,2.11,3.91,5,1,.57,.23,.23-.43-.1-1.1-10.21-4.24-19.8-9.69-27-17-2.33,.67-4.67,1.33-7,1.1-.73,6.41-2.02,5.54,0,8,.1,1,2,2.9,3,3.9,5.49,1.72,16.95,.52,21,4,.1,.1,2,2,3,2.1-2,2-4.9,4.9-6.9,6.9h7Zm-75.1-25v3h3c-1-1-2.9-2.9-3-3Zm-9,.1c-.33,1.57-.67,2.23-1.9,2.9,1.57,0,2.23,0,2,0,.57-.67,.23-1.33-.1-2.9Zm60.1,21c.57,2.57,.23,4.23-.1,5,3.15,3.36,3.21,4.58,7.1,5.9-.07-6.11-1.65-7.61-7-10.9Zm74,26v5.9c5.26,.97,5.78,1.79,9.9,1v-1c-.33-1.33-.67-2.67-1-4-2.67-.33-5.33-.67-8.9-1.9Zm-508,2.9v3c1.57-.33,2.23-.67,2-1.9,.23,.23-.43-.43-2-1.1Zm506,4c-1.43,.67-3.77,1.33-7,1.1v3c4.23,2,7.57,4.9,10.9,6.9,.67-.67,1.33-1.33,1.1-2.9-.79-4.49,.57-5.73-5-8.1Zm33.9,7c-1,4.67-2.9,9.33-3,13.1,8.15,2.4,8.05,10.62,7.1,18-.1,1.57-2,2.23-2.1,2.9-5-.67-10.9-1.33-15-2.9-.33,1-.67,2.9-1.9,3,4.03,5.41,10.93,9.05,14.9,12.9,3.33-1.33,6.67-2.67,9.1-4,.17-8.82,8.9-17.25,3.9-21-3.62-3.79-8.36-6.27-12-10.9,.1-2.1,2-6,3-9-1.91-1.52-.64-.72-4-2.1Zm-12,5.1c-.33,2.57-.67,4.23-1,5,1.1,1.23,4,1.57,5.1,1v-4c-.77,.23-2.43-.43-4.1-2Zm-12,1c-.67,2.57-1.33,4.23-2.9,5h2.9c.1,1.23,2,1.57,2.1,1.9,1.23-.33,1.57-.67,1.9-1.9v-5h-4Zm-38.9,10.9c1.23,1.1,1.57,4,1.9,5.1,.67,1.23,1.33,1.57,1.1,1,2.23-.1,3.57-2,4-2.1v-1.9c-1.43-.1-3.77-2-7-2.1Zm32.9,2.1c1.48,4.27,1.98,3.55,3,7-.67,1-1.33,2.9-2,3.9,.33,.67,.67,1.33,.1,1.1,4.23,.23,7.57-.43,10.9-1.1v-1c-1-2.33-2.9-4.67-3.9-7-2.1-.67-6-1.33-8.1-2.9Zm39,28c.33,4.23,.67,7.57,.1,10.9,10.74,3.23,12.34,11.74,23.9,14.1v-4c-2-2.43-4.9-5.77-6.9-9.1-7.29-.41-11.1-5.93-17.1-11.9Zm62,32.9c.33,1.1,.67,4,1,5.1,1.67,2.23,3.33,3.57,4.1,4,2.23,.57,3.57,.23,4.9-1v-7c-3.33,.23-6.67-.43-10-1.1Zm-32.9,7c3.23,6.53,7.35,11.12,12,9v-5c-.1-1.33-2-2.67-2.1-4h-9.9Zm63.9,5.1c-3.67,4.28-6.22,3.54-10,7.9-2.33-1.33-4.67-2.67-7-4v4c1.33,.33,2.67,.67,3.1,1-1.71,3.77-2.06,6.47-3.1,12-2.33,.33-4.67,.67-7,.1v2.9c7.95-.06,8.64,1.45,13,4,.52-8.98,9.3-11.52,14.1-18.9,.63-5.16,.15-5.41-3.1-9Zm2,43c-.33,1.57-.67,2.23-1,2.9,.67,.67,1.33,1.33,2,1.1,1.1-.1,4-2,5.1-2.1v-1.9h-6.1Zm18.1,18.9v4h4.9c-1.54-4.2,.18-2.45-4.9-4Zm17.9,0v2.1c.1,.23,2-.43,3-1.1v-1h-3Zm-3.9,12v2.1c1.57,.23,2.23-.43,2.9-1.1-.67-.33-1.33-.67-2.9-1Zm16.9,5c-1.33,3.33-2.67,6.67-4.9,9.1,5.86-.65,5.82-1.99,7-6.1-.1-1-2-2.9-2.1-3Zm-14,8.1c.33,1.57,.67,2.23,1,2.9-.42-.93,.8-.68-1-2.9Zm-9.9,4.9c1.23,.67,1.57,1.33,1.9,2,.33-.67,.67-1.33,.1-2,.23,0-.43,0-2,0Zm-5,.1c.23,1.23-.43,1.57-2,1.9,1.23,.1,1.57,2,1.9,2.1,.33,0,.67,0,.1,0,2.23-.1,3.57-2,4.9-2.1-1.33-.33-2.67-.67-4.9-1.9Zm11.9,0c-.33,1-.67,2.9-1,3.9,2.09-2.28,1.16-.38,1-3.9Zm11,10.9l-4,8c1.1,1.67,4,3.33,5.1,5,3-.33,6.9-.67,9.9-1-.33-1-.67-2.9-1-3-6.17-3.44-4.8-6.65-10-9Zm66,26c.67,.67,1.33,1.33,2,1.1-.67,.23-1.33-.43-2-1.1Zm-5,17c.1,2.33,2,4.67,3,7h-4c-1-1-2.9-2.9-3.9-3,1.23-.67,1.57-1.33,1.9-2,.1-.67,2-1.33,3-2Zm17,13.1h2.1c-.4,5.61-.41,5.58-5.1,6.9,.1-2,2-4.9,3-6.9Zm-25,1.9c1.33,.33,2.67,.67,3.1,1,.02,4.96-2.04,2.74,1.9,5.1,1.1,1.23,4,1.57,6,1.9-.33,.67-.67,1.33-1,1.1-5.67,1-11.33,2.9-17,3.9v-1c1.28-6.56,4.38-7.12,7-12Zm15.1,2.1c1,1.23,2.9,1.57,3.9,1.9-.67,.1-1.33,2-2,2.1-.67,.23-1.33-.43-2-1.1,.33-.67,.67-1.33,.1-2.9Zm-9.1,25h2c-.67,1-1.33,2.9-2,3v-3Zm9.1,1.9c1,.67,2.9,1.33,3.9,1.1-.67,1.57-1.33,2.23-2,2.9-.67-.67-1.33-1.33-2-2.9,.33,.23,.67-.43,.1-1.1Zm-40.1,17c1.67,1.1,3.33,4,4.1,5.1v1.9c-1.1-.33-4-.67-5.1-1.9,.33-1.1,.67-4,1-5.1Zm35,3c1.67,1.1,3.33,4,5,6-.67,.67-1.33,1.33-2,1.1-2.62-1.8-3.48-3.8-3-7.1Zm-50,58v6c3.65-1.06,2.94-.81,5-3.9,0,.57,0,.23,0-.1-1.67-.67-3.33-1.33-5-2Zm3,7.1c.33,1,.67,2.9,1,3,.67,.57,1.33,.23,1.1-.1v-1c-.1-.33-2-.67-2.1-1.9Zm69.1,6.9c1.57,.67,2.23,1.33,2.9,1.1-.67,.23-1.33-.43-2.9-1.1Zm-51.1,4c-5.66,6.17-7.79,6.18-15.9,9.1,1.26,7.02,.95,7.9,6.9,8,3.67-1.43,7.33-3.77,11-6.1,.33-2.67,.67-5.33,1-8l-3-3Zm25,1v0Zm-65,4.1c-2.17,4.82-1.38,4.83-5,4,.1,2.23,2,3.57,3,4,2.67,.57,5.33,.23,8-.1-1.06-4.95-1.08-5.65-6-7.9Zm57,2.9c-2.51,7.85-5.84,19.34,5,17,.1-2,2-4.9,3-6-1.41-5.21-3.1-9.06-8-11Zm29.1,1.1c1,2,2.9,4.9,3.9,6.9,.67,0,1.33,0,1.1,0,.23-1.33-.43-2.67-1.1-4-1.8-2.04-.02-.71-3.9-2.9Zm-4.1,2.9c-.33,.67-.67,1.33-1,1.1,1.33,.23,2.67-.43,4-1.1h-3Zm2,8l2.1,2.1-2.1-2.1Zm-64.9,2.1c1.57,1,2.23,2.9,2.9,3v-3h-2.9Zm110.9,2.9c-.33,.67-.67,1.33-1,1.1,.33,1.23,.67,1.57,1,1.9,.67-.67,1.33-1.33,2-2.9-.67,.57-1.33,.23-2-.1Zm-92,4c-2,1.33-4.9,2.67-6.9,4,1.23,.67,1.57,1.33,1.9,1.1h9c-.33-1.1-.67-4-1-5.1h-3Zm98,0c-1.33,.33-2.67,.67-4,1,.67,1.67,1.33,3.33,2,4.1h5c.67-.43,1.33-1.77,2-4-1.98-.7-1.39-.4-5-1.1Zm51,30c-2.43,4.93-4.29,4.76-8,8,.33,1.33,.67,2.67,1,4,3.1,.1,8,2,12,3,1.59-8.37,2.03-5.64,7-11-1.33-.67-2.67-1.33-4.9-2-2.09,3.31-.86,2.55-4.1-1.9-1,.57-2.9,.23-3-.1Zm62,43c3.61,1.65,2.35,.27,4,4h-3l-2-2c.33-.67,.67-1.33,1-2Zm-74,2.1v4h1c.67-.43,1.33-1.77,2-4h-3Zm45,10.9c1.67,.67,3.33,1.33,5,2-2.02-2.08-1.9-1.36-5-2Zm-9,2.1c-1.67,1-3.33,2.9-5,3.9,.33,.67,.67,1.33,.1,2h1.9c1.1-1.33,4-2.67,6-4-1-.33-2.9-.67-3-1.9Zm-11,6.9c.67,1.33,1.33,2.67,2,4,.33-1.33,.67-2.67,1-4h-3Zm18.1,0c1.23,.67,1.57,1.33,1.9,1.1-.42-.03,.8,.22-1.9-1.1Zm31.9,1.1c1.1,3.23,4,5.57,6,7.9-1.33,1.67-2.67,3.33-4,4.1h-3c-3.07-5.07-3.8-7.1,1-12Zm-66,5.9v2.1h3c-1-.1-2.9-2-3-2.1Zm34.1,0c.57,1.1,.23,4-.1,6,.1,.33,2,.67,3,.1h1c1.3-1.22,1.23-.55,2-4.1-.33-.67-.67-1.33-1-2h-4.9Zm-19.1,1c-3.23,2.5-8.73,2.27-11,5.1,2.67,1,5.33,2.9,8,3.9,2.67-2,5.33-4.9,8-6-.67-1-1.33-2.9-2-3h-3Zm55.1,8c1,1.67,2.9,3.33,3.9,5-2.31,4.15-1.92,7.59-3.9,13.1-4.41,3.54-4.47,2.64-12.1,1.9-2.51,4.95-6.76,7.26-10,11.1-.67,.23-1.33-.43-2-1.1,7.81-11.34,13.7-15.76,24-23.9,.33-1.43,.67-3.77,.1-6.1Zm-86.1,12c1.96,2.07,.38,1.03,4,2v-2h-4Zm46,34c-.67,.33-1.33,.67-2,1v3h6v-1c-1.33-1-2.67-2.9-4-3Zm57,14c3.36,2.76,1.94,.3,2,6h-3c.33-2,.67-4.9,1-6Zm3,3c1.67,.1,3.33,2,5,3h-5v-3Z"/></g></svg>